# xmcd CD database file
#
# Track frame offsets:
#	150
#	19159
#	38894
#	50857
#	66741
#	78336
#	95535
#	109077
#	123863
#	136995
#	148468
#	165021
#	175935
#	188287
#
# Disc length: 2656 seconds
#
# Revision: 0
# Processed by: cddbd v1.5.1PL2 Copyright (c) Steve Scherf et al.
# Submitted via: CDex 1.51
#
DISCID=c00a5e0e
DTITLE=Various Artist - The Best of Country CD2
DYEAR=1900
DGENRE=Country
TTITLE0=Juice Newton - The Sweetest Thing
TTITLE1=Michael Johnson - THe Night Won't Last Forever
TTITLE2=Skeeter Davis - The End Of The World
TTITLE3=Lynn Anderson - You Needed Me
TTITLE4=Freddy Fender - Before The Next Teardrop Falls
TTITLE5=Charile Rich - My Elusive Dream
TTITLE6=Ray Price - Heartache By The Number
TTITLE7=Don Gibson - Sweet Dreams
TTITLE8=Stonewell Jackson - Nobody's Darlin But Mine
TTITLE9=Johnny Rodriguez - Pass Me By
TTITLE10=Mickey Gilley - Lonely Night
TTITLE11=Faron Young - I Miss You Already
TTITLE12=Hank Lockin - It's A Little More Than Heaven
TTITLE13=Johnny Tillotson - Poetry In Motion
EXTD=
EXTT0=
EXTT1=
EXTT2=
EXTT3=
EXTT4=
EXTT5=
EXTT6=
EXTT7=
EXTT8=
EXTT9=
EXTT10=
EXTT11=
EXTT12=
EXTT13=
PLAYORDER=
